# xmcd
#
# Track frame offsets: 
#        150
#        15860
#        29330
#        45881
#        60967
#        77997
#        91914
#        103641
#        119312
#        136403
#        154037
#        169206
#
# Disc length: 2501 seconds
#
# Revision: 0
# Processed by: cddbd v1.5.2PL0 Copyright (c) Steve Scherf et al.
# Submitted via: ExactAudioCopy v0.99pb5
#
DISCID=8409c30c
DTITLE=DERRIC RUTTAN - TAKE THE WEEK OFF
DYEAR=2013
DGENRE=COUNTRY
TTITLE0=PASS IT AROUND
TTITLE1=TAKE THE WEEK OFF
TTITLE2=CITY LIGHTS
TTITLE3=DON'T IT FEEL GOOD
TTITLE4=THE SPACE BETWEEN
TTITLE5=HEY PAULINA
TTITLE6=WHAT A MEMORY
TTITLE7=HAPPY PLACE
TTITLE8=GOOD THING GONE
TTITLE9=MINE WOULD BE YOU
TTITLE10=COUNTRY MILE
TTITLE11=HOMETOWN
EXTD=
EXTT0=
EXTT1=
EXTT2=
EXTT3=
EXTT4=
EXTT5=
EXTT6=
EXTT7=
EXTT8=
EXTT9=
EXTT10=
EXTT11=
PLAYORDER=
